<?xml version="1.0" standalone="no"?>
<!DOCTYPE svg PUBLIC "-//W3C//DTD SVG 20010904//EN"
 "http://www.w3.org/TR/2001/REC-SVG-20010904/DTD/svg10.dtd">
<svg version="1.0" xmlns="http://www.w3.org/2000/svg"
 width="1039.000000pt" height="1039.000000pt" viewBox="0 0 1039.000000 1039.000000"
 preserveAspectRatio="xMidYMid meet">
<metadata>
Created by potrace 1.11, written by Peter Selinger 2001-2013
</metadata>
<g transform="translate(0.000000,1039.000000) scale(0.100000,-0.100000)"
fill="#000000" stroke="none">
<path d="M5 5195 c0 -4624 0 -4675 19 -4669 17 6 117 62 166 94 8 6 22 13 30
17 8 4 38 20 65 36 28 16 108 64 180 105 72 41 157 91 190 110 33 19 75 43 94
54 245 140 519 299 569 329 35 22 65 39 68 39 4 0 189 107 224 130 8 6 22 13
30 17 8 4 89 50 180 103 91 53 194 112 230 131 l65 35 4128 0 c2271 -1 4131 2
4133 5 1 3 -24 52 -56 108 -33 56 -60 104 -60 106 0 2 -17 32 -38 66 -22 35
-50 84 -64 109 -22 40 -258 447 -358 620 -90 154 -223 385 -247 428 -15 26
-71 123 -125 216 -54 93 -98 170 -98 172 0 1 -21 38 -46 81 -26 43 -55 92 -64
108 -95 166 -220 382 -252 434 -21 34 -38 65 -38 66 0 2 -39 70 -86 152 -48
81 -94 162 -104 178 -9 17 -70 122 -135 235 -65 113 -123 215 -129 227 -6 13
-14 23 -18 23 -5 0 -8 5 -8 11 0 6 -31 63 -69 127 -37 64 -164 284 -281 487
-117 204 -268 465 -335 580 -161 278 -388 671 -413 715 -10 19 -43 76 -72 125
-29 50 -64 110 -78 135 -13 25 -28 50 -32 55 -4 6 -19 30 -32 55 -22 40 -59
104 -118 205 -9 17 -52 91 -95 165 -43 74 -153 266 -245 425 -92 160 -177 306
-188 325 -11 19 -43 76 -72 125 -29 50 -62 106 -73 125 -10 19 -69 121 -130
225 -60 105 -119 206 -130 225 -44 80 -361 626 -372 643 -12 17 -16 13 -42
-35 -16 -29 -39 -69 -50 -88 -100 -172 -754 -1303 -878 -1520 -40 -69 -101
-175 -137 -236 -35 -61 -68 -117 -71 -125 -4 -8 -58 -102 -120 -209 -83 -143
-118 -194 -130 -192 -9 2 -124 65 -254 141 -589 341 -761 440 -808 466 -27 15
-62 36 -77 46 -14 11 -29 19 -32 19 -3 0 -43 22 -88 49 -46 27 -99 58 -118 69
-28 16 -218 125 -460 265 -19 11 -55 31 -80 45 -25 13 -52 29 -60 36 -8 6 -28
18 -45 26 -16 8 -37 19 -45 26 -8 6 -42 26 -75 44 -33 18 -143 81 -245 140
-292 169 -642 371 -675 390 -16 10 -53 31 -81 47 -27 17 -72 43 -100 58 -27
15 -148 85 -269 155 -121 70 -296 171 -390 225 -228 131 -220 127 -301 174
-39 22 -73 41 -75 41 -2 0 -4 -2104 -4 -4675z m1705 1814 c58 -33 125 -72 150
-86 52 -29 381 -219 585 -338 77 -45 169 -98 205 -119 36 -20 72 -41 80 -46
20 -13 443 -256 500 -288 25 -14 61 -35 80 -47 19 -12 40 -24 45 -26 46 -19
125 -74 121 -84 -2 -8 -70 -125 -149 -262 -148 -256 -319 -551 -355 -613 -10
-19 -169 -294 -352 -610 -183 -316 -341 -591 -352 -610 -117 -204 -150 -259
-165 -272 -15 -12 -129 -80 -253 -151 -19 -10 -82 -46 -140 -80 -58 -33 -108
-61 -111 -63 -4 -2 -7 842 -7 1876 0 1034 3 1880 7 1880 3 0 53 -27 111 -61z
m5240 -2589 c8 -13 34 -58 99 -174 12 -21 79 -135 148 -255 69 -119 135 -232
146 -251 28 -51 206 -360 228 -396 l19 -31 -1360 0 c-748 0 -1360 3 -1360 6 0
4 15 14 33 22 24 12 374 212 467 268 8 5 101 59 205 119 105 60 260 150 345
199 85 49 261 151 390 225 129 75 316 183 415 240 l180 104 18 -30 c10 -17 22
-38 27 -46z"/>
</g>
</svg>
